<mxfile host="app.diagrams.net" modified="2020-12-09T00:18:57.604Z" agent="5.0 (Windows)" etag="xjqyupNnvxqgp95r96Bv" version="13.11.0" type="github">
  <diagram id="xfcLCbZEFqe4JFOpqtM2" name="Page-1">
    <mxGraphModel dx="868" dy="451" grid="1" gridSize="10" guides="1" tooltips="1" connect="1" arrows="1" fold="1" page="1" pageScale="1" pageWidth="827" pageHeight="1169" math="0" shadow="0">
      <root>
        <mxCell id="0" />
        <mxCell id="1" parent="0" />
        <mxCell id="E3PWSfgkGM5OvUIPdRcR-1" value="" style="shape=process;whiteSpace=wrap;html=1;backgroundOutline=1;size=0.06578947368421052;" vertex="1" parent="1">
          <mxGeometry x="60" y="190" width="770" height="400" as="geometry" />
        </mxCell>
        <mxCell id="E3PWSfgkGM5OvUIPdRcR-2" value="Validação de troca de bases de dados" style="text;html=1;strokeColor=none;fillColor=none;align=center;verticalAlign=middle;whiteSpace=wrap;rounded=0;rotation=-90;" vertex="1" parent="1">
          <mxGeometry x="-50" y="380" width="280" height="20" as="geometry" />
        </mxCell>
      </root>
    </mxGraphModel>
  </diagram>
</mxfile>
